<?xml version="1.0" encoding="utf-8"?>
<!-- Generator: Adobe Illustrator 25.4.1, SVG Export Plug-In . SVG Version: 6.00 Build 0)  -->
<svg version="1.1" id="Layer_1" xmlns="http://www.w3.org/2000/svg" xmlns:xlink="http://www.w3.org/1999/xlink" x="0px" y="0px"
	 viewBox="0 0 180 330" style="enable-background:new 0 0 180 330;" xml:space="preserve">
<style type="text/css">
	.st0{fill:#1A1A1A;}
	.st1{fill:#FFFFFF;}
	.st2{fill:none;}
	.st3{fill:#0EC43E;}
	.st4{fill:#2CF226;}
	.st5{fill:#E0FF23;}
</style>
<path class="st0" d="M164.9,330H15.1C6.7,330,0,323.3,0,314.9V15.1C0,6.7,6.7,0,15.1,0H165c8.3,0,15.1,6.7,15.1,15.1V315
	C180,323.3,173.3,330,164.9,330L164.9,330z"/>
<path class="st1" d="M150.1,165H29.9c-8.2,0-14.9-6.7-14.9-14.9V30c0-8.3,6.7-15,14.9-15H150c8.2,0,14.9,6.7,14.9,14.9V150
	C165,158.4,158.3,165,150.1,165L150.1,165z"/>
<path d="M99,30.4h7.3v-3.6h3.6v-3.6h-7.2v3.6h-7.3v3.6H99z M113.5,30.4h3.6V34h3.6v-3.6h7.3v-7.2h-10.9v3.6h-7.2v3.6L113.5,30.4z
	 M91.8,34v-7.2h3.6v-3.6H84.6v7.2h3.6V34h-3.6v3.6h10.8V34H91.8z M66.5,44.8v3.7h3.6v-7.3h3.6v-3.6h-7.2v3.6V44.8z M113.5,41.2h3.6
	v3.6h-3.6V41.2z M52,44.8h3.6v3.6H52V44.8z"/>
<path d="M59.3,48.5h3.6V37.6h3.6V34h3.6v-3.6h-3.6v-7.2h-3.6V34h-3.6V23.2H52v3.6h3.7V34H52v3.6h3.7v7.2h3.6V48.5z M55.7,48.5h3.6
	v3.6h-3.6V48.5z M30.3,52.1h3.6v3.6h-3.6L30.3,52.1z M52,52.1h3.6v3.6H52V52.1z M153.3,52.1v3.6h-3.6v3.6h3.6v3.6h3.6V52.1H153.3z
	 M102.7,55.7h3.6v3.6h-3.6V55.7z"/>
<path d="M146,55.7v-3.6h-3.6v7.2h-3.6v-3.6h-7.2v7.2h3.6v3.6h-3.6v-3.6H128v-7.2h3.6v-3.6H128V37.7h-3.6V34h-3.6v10.8h3.6V52h-3.6
	v-7.2h-3.6v3.6h-3.6v-3.6H110v3.6h-3.6v-7.2h7.2v-3.6H110v-7.2h-3.6V34H99v3.6h-3.6v3.6h-3.6v3.6h3.6v3.6h-3.6v-3.6h-3.6v3.6h-3.6
	v10.8h3.6v3.6h3.6v-7.2h-3.6V52h3.6v3.6h10.8V52h3.6v3.6h3.6V52h7.2v7.2h3.6v3.6h3.6v3.6h-3.6V70h3.6v3.6h3.6V70h3.6v7.2h3.6V70h3.6
	v-3.6h3.6v7.2h3.6v3.6h3.6V81h3.6v-3.6h3.6v-7.2H153v3.6h-3.6v-3.6H146V63h3.6v-3.6H146V55.7z M99,48.5v-7.2h3.6v7.2H99z"/>
<path d="M62.9,59.3h7.2v7.2h3.6v-3.6H81v3.6h3.6v3.7h3.6v-7.3h-3.6v-3.6h-7.3V44.8H81v3.7h3.6v-7.3H81v-18h-3.7v3.6h-3.6v3.6h3.6
	v10.8h-3.6v14.5h-7.2v-7.2h-3.6v7.2h-7.2v3.6h3.6v3.6h3.6L62.9,59.3z M109.9,59.3h-3.6v3.6h-3.6v7.3H99v3.6h-3.6v-3.6h-3.6v7.2h3.6
	V81H99v-3.6h7.3V66.5h3.6v-3.6h3.6v3.6h-3.6v3.7h7.2v-3.7h3.6v-3.6h-3.6v-3.6h-3.6L109.9,59.3z"/>
<path d="M95.4,66.5H99v-3.6h3.7v-3.6h-7.3v3.6h-3.6v3.6H95.4z M23.1,66.5h3.6v3.6h-3.6V66.5z M48.4,70.2v-3.7h-3.6v-3.6h3.6v-3.6
	h-3.6v-3.6h3.6v-3.6H37.6v3.6h3.6v7.2h-3.6v3.6h3.6v3.7h3.6L48.4,70.2z M70.1,66.5h-3.6v-3.6h-3.6v10.9h7.2v-3.6V66.5z M81,67.8
	h-7.3v7.3h10.9v-3.7H81V67.8z M149.7,66.5h3.6v3.6h-3.6V66.5z M37.6,70.2h3.6v3.6h-3.6V70.2z"/>
<path d="M34,77.4V59.3h-3.7v3.6h-3.6v3.6h3.6v3.7h-3.6v7.2h3.6L34,77.4z M70.1,73.8h3.6v3.6h-3.6V73.8z M84.6,73.8h3.6v3.6h-3.6
	V73.8z M138.8,73.8h3.6v3.6h-3.6V73.8z M23.1,77.4h3.6V81h-3.6V77.4z M59.3,77.4v-3.6h-3.6v-7.3h3.6v-3.6H52v10.9H41.2v3.6h-3.6V81
	h3.6v3.6h7.2V81h-3.6v-3.6h10.9V81H52v3.6h7.3V81V77.4z M66.5,77.4h-3.6v7.2h-3.6v7.3h3.6v-3.7h3.6V81h3.6v-3.6H66.5z M128,81h-3.7
	v-3.6h-3.6v7.2h3.6v7.3h-3.6v-3.7h-3.6v3.7h-3.6v3.6h-3.6v3.6h7.2v3.6h3.6v-3.6h7.3v-3.6h3.6v-3.6H128v-7.3h3.6v7.3h3.6v3.6h-3.6
	v3.6H128v3.6h3.6v3.6h3.6v-7.2h3.6v-7.2h3.6v3.6h3.6V81h-3.6v7.2h-7.2v-3.6h3.6v-7.2h-3.6V81h-3.6v-3.6H128V81z M30.3,81h3.6v3.6
	h-3.6L30.3,81z M91.8,84.6h-3.6V81h-3.6v7.2h10.8V81h-3.6L91.8,84.6z M30.3,88.2v-3.6h-7.2v3.6h3.6H30.3z M37.6,84.6h3.6v3.6h-3.6
	V84.6z M48.4,84.6H52v3.6h-3.6V84.6z M149.7,84.6v7.3h3.6v3.6h-3.6v3.6h3.6v7.2h3.6V81h-3.6v3.6H149.7z M30.3,88.2h3.6v3.6h-3.6
	L30.3,88.2z M44.8,88.2h3.6v3.6h-3.6V88.2z M26.7,91.9h3.6v3.6h-3.6V91.9z M75,95.5v3.6h-3.6v3.6H75v3.6h7.3v-3.6h-3.7v-3.6h3.7v3.6
	h3.6v-7.2h-3.6v-7.3h-3.7v-3.6h3.7V81H71.4v3.6H75v7.3h-7.2v3.6h3.6H75z M23.1,99.1h3.6v3.6h-3.6V99.1z M66.5,99.1v-3.6h-3.6v7.2
	h3.6V99.1z M146,99.1h3.6v3.6H146V99.1z"/>
<path d="M84.6,106.3v3.6h7.2v-3.6h-3.6v-3.6h-3.6V106.3z M124.3,102.7h3.6v3.6h-3.6V102.7z M138.8,102.7v3.6h7.2v-3.6h-3.6H138.8z
	 M23.1,106.3h3.6v3.6h-3.6V106.3z M70.1,106.3h3.6v3.6h-3.6V106.3z"/>
<path d="M99,106.3v-7.2h3.7v-3.6h3.6v-3.6h3.6v-3.7h-3.6v-3.6h3.6V81h3.6v3.6h-3.6v3.6h7.2V73.8h-7.2v3.6h-3.6V81h-3.6v3.6H99v3.6
	h3.7v3.7H88.2v3.6h3.6v3.6h-3.6v3.6h7.2v10.7H99v3.8h3.7v-7.3h3.6v-3.6h-3.6H99z M128,106.3h3.6v3.6H128V106.3z M149.7,106.3h3.6
	v3.6h-3.6V106.3z M41.2,109.9h-3.6V99.1h-7.3v3.6H34v7.2h-7.3v3.6h3.6v3.7h7.3v-3.7h10.8v-3.6h-3.6L41.2,109.9z M66.5,109.9h3.6v3.6
	h-3.6V109.9z M77.3,109.9h3.6v3.5h-3.6V109.9z M128,113.5v-3.6h-7.3v7.3h3.6v-3.7H128z M59.3,113.5h3.6v3.6h-3.6V113.5z"/>
<path d="M149.7,113.5v3.6h-7.3v7.2h-7.2v-3.6h3.6v-10.8h-7.2v14.4H128v-7.2h-3.6v10.8h-7.2v-3.6h3.6v-7.2h-3.6v3.6h-3.6v-3.6h3.6
	v-3.6h-3.6v-7.2h3.6v-3.6h-10.8v3.6h3.6v3.6h-3.6v7.2h-3.6v3.6h7.2v3.6h3.6v7.2H110v3.6h3.6v10.8h3.6v-7.2h3.6v-3.6h3.6v10.8h3.6
	v3.6h-3.6v-3.6h-3.6v3.6h-7.2v7.2H128v-3.6h3.6v-10.8h7.2v3.6h-3.6v3.6h7.2v-7.2h3.6v-3.6h-3.6V128h3.6v-7.2h7.2v3.6h3.6V110h-3.6
	v3.6L149.7,113.5L149.7,113.5z M138.8,131.6v7.2H128V128h10.8V131.6z M23.1,117.2h3.6v3.6h-3.6V117.2z M41.2,120.8h7.2v-3.6H37.6
	v3.6H41.2z M88.2,120.8h3.6v-7.3h-7.2v3.7h3.6V120.8z M26.7,120.8h3.6v3.6h-3.6V120.8z M34,120.8h3.6v3.6H34V120.8z"/>
<path d="M62.9,120.8h-7.2v-7.2h3.6V110h3.6v-7.2h-3.6v-7.2h-3.6V92H52v3.6H41.2V92h-3.6v7.2h3.6v7.2h7.2v3.6H52v21.6h3.6v-7.2h3.6
	v3.6h3.6v-7.2L62.9,120.8z M44.8,102.7v-3.6h3.6v3.6H44.8z M52,102.7v-3.6h3.6v7.2H52C52,106.3,52,102.7,52,102.7z M73.7,120.8h3.6
	v-7.3h-3.6v3.7h-3.6V128h3.6v-3.6V120.8z M23.1,124.4h3.6v3.6h-3.6V124.4z M30.3,124.4h3.6v3.6h-3.6L30.3,124.4z M44.8,124.4h3.6
	v3.6h-3.6V124.4z"/>
<path d="M81,124.4h3.6v-7.2H81v3.6h-3.7v7.2h-3.6v3.6h10.9V128H81V124.4z M88.2,124.4h-3.6v3.6h7.2v-3.6H88.2z M102.7,124.4v-3.6H99
	v3.6h-3.6v3.6h-3.6v3.6h3.6v3.6h-3.6v3.7h10.9v-3.7H99V128h10.9v-3.6h-3.6H102.7z M149.7,124.4h3.6v3.6h-3.6V124.4z M62.9,128h3.6
	v3.6h-3.6V128z M66.5,131.6h3.6v3.6h-3.6V131.6z M131.6,131.6h3.6v3.6h-3.6V131.6z M149.7,131.6H146v3.6h3.7v3.7h3.6v-3.7h3.6V128
	h-3.6v3.6H149.7z M62.9,142.5v3.6h3.6v3.6h3.6v-3.6h3.6v-3.6h-7.2v-7.3h-3.6v3.7h-7.2v-3.7H52v7.3h3.7v3.6h3.6v-3.6H62.9z"/>
<path d="M88.2,142.5h-3.6v3.6H81v-7.2h3.6v-3.7h-7.3v14.5h-3.6v3.6H62.9v3.6H81v-3.6h3.6v3.6h3.6v-7.2h7.2v3.6H99v-7.2h-7.2v-7.2
	h-3.6L88.2,142.5z M106.3,142.5h3.6v3.6h-3.6V142.5z M149.7,142.5H146v3.6h7.3v3.6h3.6v-10.8h-3.6v3.6L149.7,142.5z M52,146.1h3.6
	v3.6H52V146.1z M62.9,146.1h-3.6v7.2h3.6v-3.6V146.1z M102.7,149.7v3.6h7.2v-3.6h-3.6v-3.6h-3.6V149.7z M149.7,153.3v3.6h7.2v-3.6
	h-3.6v-3.6h-3.6L149.7,153.3z M55.7,153.3h3.6v3.6h-3.6V153.3z"/>
<path d="M91.8,153.3h3.6v3.6h-3.6V153.3z M131.6,153.3h3.6v3.6h-3.6V153.3z M138.8,153.3h3.6v3.6h-3.6V153.3z M148.3,23.2h-8
	c-3.9,0-7.2,2.6-8.3,6.1c-0.1,0.4-0.2,0.7-0.3,1.1s-0.1,0.9-0.1,1.3v8.2c0,4.7,3.9,8.5,8.6,8.5h8c4.8,0,8.6-3.8,8.6-8.5v-8.2
	C156.9,27,153,23.2,148.3,23.2z M153.1,39.9c0,2.6-2.2,4.7-4.8,4.7h-8c-2.7,0-4.8-2.1-4.8-4.7v-8.2c0-0.8,0.2-1.6,0.6-2.3
	c0.4-0.6,0.9-1.2,1.5-1.6c0.8-0.5,1.7-0.9,2.8-0.9h8c2.7,0,4.8,2.1,4.8,4.7v8.3H153.1z"/>
<path class="st2" d="M39.8,135.4h-8c-1,0-2,0.3-2.8,0.9c-0.6,0.4-1.1,1-1.5,1.6c-0.4,0.7-0.6,1.4-0.6,2.3v8.2c0,2.6,2.2,4.7,4.8,4.7
	h8c2.7,0,4.8-2.1,4.8-4.7v-8.2C44.6,137.6,42.4,135.4,39.8,135.4z"/>
<path d="M39.8,131.6h-8c-3.9,0-7.2,2.6-8.3,6.1c-0.1,0.4-0.2,0.7-0.3,1.1c-0.1,0.4-0.1,0.9-0.1,1.3v8.2c0,4.7,3.9,8.5,8.6,8.5h8
	c4.8,0,8.6-3.8,8.6-8.5v-8.2C48.4,135.5,44.5,131.6,39.8,131.6L39.8,131.6z M44.6,148.4c0,2.6-2.2,4.7-4.8,4.7h-8
	c-2.7,0-4.8-2.1-4.8-4.7v-8.2c0-0.8,0.2-1.6,0.6-2.3c0.4-0.6,0.9-1.2,1.5-1.6c0.8-0.5,1.7-0.9,2.8-0.9h8c2.7,0,4.8,2.1,4.8,4.7v8.3
	H44.6z M33.3,41.2c-1.6,0-3-1.3-3-2.9v-5c0-0.5,0.1-1,0.4-1.4c0.2-0.4,0.5-0.7,0.9-1c0.5-0.3,1.1-0.5,1.7-0.5h4.9c1.6,0,3,1.3,3,2.9
	v5c0,1.6-1.3,2.9-3,2.9H33.3z M141.8,41.2c-1.6,0-3-1.3-3-2.9v-5c0-0.5,0.1-1,0.4-1.4c0.2-0.4,0.5-0.7,0.9-1
	c0.5-0.3,1.1-0.5,1.7-0.5h4.9c1.6,0,3,1.3,3,2.9v5c0,1.6-1.3,2.9-3,2.9H141.8L141.8,41.2z"/>
<path d="M33.3,149.7c-1.6,0-3-1.3-3-2.9v-5c0-0.5,0.1-1,0.4-1.4c0.2-0.4,0.5-0.7,0.9-1c0.5-0.3,1.1-0.5,1.7-0.5h4.9
	c1.6,0,3,1.3,3,2.9v5c0,1.6-1.3,2.9-3,2.9H33.3z"/>
<g>
	<path id="rect2987_1_" class="st1" d="M74.7,66.5h30.5c4.5,0,8.2,3.7,8.2,8.2v30.5c0,4.5-3.7,8.2-8.2,8.2H74.7
		c-4.5,0-8.2-3.7-8.2-8.2V74.8C66.5,70.2,70.2,66.5,74.7,66.5z"/>
	<g>
		<g>
			<path class="st3" d="M90,91.6c-4.3,0-7.7-3.5-7.7-7.7c0-4.3,3.5-7.7,7.7-7.7c4.3,0,7.7,3.5,7.7,7.7C97.7,88.2,94.2,91.6,90,91.6z
				"/>
		</g>
		<g>
			<path class="st4" d="M81.5,99c-4.3,0-7.7-3.5-7.7-7.7c0-4.3,3.5-7.7,7.7-7.7c4.3,0,7.7,3.5,7.7,7.7C89.2,95.5,85.8,99,81.5,99z"
				/>
		</g>
		<g>
			<path class="st4" d="M98.4,99c-4.3,0-7.7-3.5-7.7-7.7c0-4.3,3.5-7.7,7.7-7.7c4.3,0,7.7,3.5,7.7,7.7C106.1,95.5,102.6,99,98.4,99z
				"/>
		</g>
		<g>
			<path class="st5" d="M90.7,91.6c0-0.1,0-0.2,0-0.3c0-4,3.1-7.3,7-7.7c0,0.1,0,0.2,0,0.3C97.7,87.9,94.6,91.2,90.7,91.6z"/>
		</g>
		<g>
			<path class="st5" d="M89.2,91.6c-3.9-0.4-7-3.7-7-7.7c0-0.1,0-0.2,0-0.3c3.9,0.4,7,3.7,7,7.7C89.2,91.4,89.2,91.5,89.2,91.6z"/>
		</g>
		<path d="M98.4,82.8C98.4,82.8,98.3,82.9,98.4,82.8c-0.6-4.1-4.1-7.4-8.4-7.4c-4.3,0-7.8,3.2-8.3,7.4c0,0-0.1,0-0.1,0
			c-4.7,0-8.4,3.8-8.4,8.4c0,4.7,3.8,8.4,8.4,8.4c3.3,0,6.2-1.9,7.6-4.8v8.8c0,0.5,0.4,0.9,0.9,0.9c0.5,0,0.9-0.4,0.9-0.9v-8.8
			c1.4,2.8,4.2,4.8,7.6,4.8c4.7,0,8.4-3.8,8.4-8.4C106.8,86.6,103,82.8,98.4,82.8z M90,77.2c3.4,0,6.2,2.6,6.6,5.8
			c-3.6,0.8-6.3,3.8-6.6,7.5c0,0,0,0,0,0c0,0,0,0,0,0c-0.3-3.7-3-6.7-6.6-7.5C83.7,79.7,86.6,77.2,90,77.2z M96.6,84.8
			c-0.4,2.7-2.3,4.9-4.9,5.6C92.1,87.7,94,85.5,96.6,84.8z M88.2,90.4c-2.6-0.7-4.5-2.9-4.9-5.6C85.9,85.5,87.8,87.7,88.2,90.4z
			 M81.5,98c-3.7,0-6.7-3-6.7-6.7s3-6.7,6.7-6.7c0,0,0,0,0,0c0.3,3.7,3,6.8,6.6,7.6C87.7,95.4,84.9,98,81.5,98z M98.4,98
			c-3.4,0-6.2-2.6-6.6-5.8c3.6-0.8,6.3-3.8,6.6-7.6c0,0,0,0,0,0c3.7,0,6.7,3,6.7,6.7S102.1,98,98.4,98z"/>
	</g>
</g>
<path class="st2" d="M39.8,27h-8c-1,0-2,0.3-2.8,0.9c-0.6,0.4-1.1,1-1.5,1.6c-0.4,0.7-0.6,1.4-0.6,2.3V40c0,2.6,2.2,4.7,4.8,4.7h8
	c2.7,0,4.8-2.1,4.8-4.7v-8.2C44.6,29.1,42.4,27,39.8,27z"/>
<path d="M39.8,23.2h-8c-3.9,0-7.2,2.6-8.3,6.1c-0.1,0.4-0.2,0.7-0.3,1.1c-0.1,0.4-0.1,0.9-0.1,1.3v8.2c0,4.7,3.9,8.5,8.6,8.5h8
	c4.8,0,8.6-3.8,8.6-8.5v-8.2C48.4,27,44.5,23.2,39.8,23.2z M44.6,39.9c0,2.6-2.2,4.7-4.8,4.7h-8c-2.7,0-4.8-2.1-4.8-4.7v-8.2
	c0-0.8,0.2-1.6,0.6-2.3c0.4-0.6,0.9-1.2,1.5-1.6c0.8-0.5,1.7-0.9,2.8-0.9h8c2.7,0,4.8,2.1,4.8,4.7v8.3H44.6z"/>
<g>
	<path class="st1" d="M42.4,190.7c-3.5,0-6.1,2.7-6.1,7.6c0,4.9,2.5,7.7,6.2,7.7c3.3,0,5.4-2,5.4-5.1h-5v-3.1h8.9v2.6
		c0,5.6-3.9,9.1-9.3,9.1c-6,0-10.1-4.3-10.1-11.2c0-7,4.3-11.2,10-11.2c4.8,0,8.5,3,9.2,7.3h-4C46.8,192.1,45,190.7,42.4,190.7
		L42.4,190.7z M54.7,201.2c0-5,3.1-8.5,7.7-8.5c4,0,7.5,2.5,7.5,8.3v1.2H58.5c0,2.8,1.7,4.4,4.2,4.4c1.7,0,2.9-0.7,3.5-2.1l3.6,0.4
		c-0.7,2.8-3.3,4.7-7.1,4.7C57.7,209.6,54.7,206.3,54.7,201.2L54.7,201.2z M66.2,199.5c0-2.2-1.5-3.8-3.7-3.8c-2.3,0-3.8,1.8-4,3.8
		H66.2z M81.3,195.9h-3.2v8.5c0,1.6,0.8,1.9,1.7,1.9c0.5,0,0.9-0.1,1.1-0.1l0.6,3c-0.4,0.1-1.2,0.4-2.3,0.4
		c-2.9,0.1-5.1-1.4-5.1-4.5V196h-2.3v-3h2.3v-4H78v3.9h3.2v3H81.3z M90.8,209.2l7.7-21.8h4.9l7.7,21.8h-4.2l-1.8-5.4h-8.2l-1.8,5.4
		C95.1,209.2,90.8,209.2,90.8,209.2z M103.9,200.7l-3-8.8h-0.2l-3,8.8H103.9z M113.7,192.9h3.8v2.7h0.2c0.6-1.2,1.8-2.9,4.7-2.9
		c3.8,0,6.8,3,6.8,8.4s-2.9,8.4-6.7,8.4c-2.8,0-4.1-1.7-4.7-2.9h-0.2v8.7h-3.9C113.7,215.3,113.7,192.9,113.7,192.9z M121.4,206.4
		c2.5,0,3.9-2.2,3.9-5.3c0-3-1.3-5.2-3.9-5.2c-2.5,0-3.8,2.1-3.8,5.2S118.9,206.4,121.4,206.4z M132.5,192.9h3.8v2.7h0.2
		c0.6-1.2,1.8-2.9,4.7-2.9c3.8,0,6.8,3,6.8,8.4s-2.9,8.4-6.7,8.4c-2.8,0-4.1-1.7-4.7-2.9h-0.2v8.7h-3.9L132.5,192.9L132.5,192.9z
		 M140.1,206.4c2.5,0,3.9-2.2,3.9-5.3c0-3-1.3-5.2-3.9-5.2c-2.5,0-3.8,2.1-3.8,5.2S137.6,206.4,140.1,206.4z M50.9,231.9h-3.4v13.4
		h-3.9v-13.4h-2.4v-3h2.4v-1.5c0-3.3,2.3-4.9,5.1-4.9c1.3,0,2.4,0.3,2.9,0.4l-0.8,3c-0.3-0.1-0.8-0.2-1.4-0.2c-1.4,0-2,0.7-2,2v1.3
		h3.4v2.9H50.9z M52.6,237.1c0-5.1,3-8.5,7.8-8.5s7.8,3.4,7.8,8.5s-3,8.4-7.8,8.4C55.6,245.6,52.6,242.2,52.6,237.1z M64.3,237.1
		c0-3-1.3-5.4-3.9-5.4c-2.7,0-4,2.4-4,5.4s1.3,5.4,4,5.4C63,242.5,64.3,240.1,64.3,237.1z M71.5,228.9h3.7v2.7h0.2
		c0.6-1.9,2.2-3,4-3c0.4,0,1,0,1.4,0.1v3.5c-0.3-0.1-1.1-0.2-1.8-0.2c-2.1,0-3.7,1.5-3.7,3.5v9.6h-3.9v-16.2L71.5,228.9z
		 M90.6,224.5c0-1.2,1-2.1,2.2-2.1s2.2,0.9,2.2,2.1c0,1.2-1,2.1-2.2,2.1S90.6,225.6,90.6,224.5z M90.9,228.9h3.9v16.4h-3.9V228.9z
		 M108.3,245.5c-5.7,0-10-4.2-10-11.2c0-7.1,4.3-11.2,10-11.2s10,4.2,10,11.2S114,245.5,108.3,245.5z M108.3,226.7
		c-3.5,0-6,2.7-6,7.7s2.5,7.7,6,7.7c3.6,0,6-2.7,6-7.7S111.9,226.7,108.3,226.7z M129.8,226.5c-2.5,0-3.9,1.2-4,2.8
		c0,1.8,1.9,2.6,3.7,3l2,0.5c3.3,0.8,6.4,2.5,6.4,6.3s-3,6.5-8.3,6.5c-5.1,0-8.3-2.4-8.5-6.8h3.9c0.2,2.3,2.1,3.4,4.5,3.4
		c2.6,0,4.3-1.2,4.4-3.1c0-1.7-1.6-2.4-3.9-3l-2.5-0.6c-3.6-0.9-5.8-2.7-5.8-5.9c0-3.9,3.4-6.4,8-6.4c4.6,0,7.8,2.6,7.9,6.3h-3.8
		C133.7,227.6,132.2,226.5,129.8,226.5L129.8,226.5z"/>
</g>
<g>
	<path class="st1" d="M32.7,268.2c-1.7,0-2.9,0.9-2.9,2.2c0,1.4,1.6,1.9,2.5,2.2l1.3,0.4c1.4,0.4,3.7,1.2,3.7,3.6
		c0,2.1-1.7,3.8-4.7,3.8c-2.8,0-4.6-1.5-4.7-3.6h1.6c0.1,1.5,1.5,2.2,3.1,2.2c1.8,0,3.2-0.9,3.2-2.4c0-1.3-1.2-1.8-2.6-2.2l-1.6-0.5
		c-2-0.6-3.3-1.6-3.3-3.4c0-2.2,2-3.7,4.5-3.7s4.4,1.5,4.4,3.5h-1.5C35.5,268.9,34.3,268.2,32.7,268.2z M39.3,275.2
		c0-3,1.8-5.1,4.4-5.1c2.1,0,3.6,1.2,3.9,3.1h-1.5c-0.2-0.9-1-1.7-2.4-1.7c-1.8,0-2.9,1.5-2.9,3.7c0,2.3,1.2,3.8,2.9,3.8
		c1.2,0,2.1-0.6,2.4-1.7h1.5c-0.3,1.7-1.7,3.1-3.9,3.1C41,280.2,39.3,278.1,39.3,275.2L39.3,275.2z M49.4,277.2c0-2.2,2-2.7,3.8-2.9
		c1.8-0.2,2.5-0.2,2.5-0.9v-0.1c0-1.3-0.7-2-2.1-2c-1.4,0-2.2,0.8-2.6,1.5l-1.4-0.5c0.8-1.8,2.5-2.3,3.9-2.3c1.3,0,3.6,0.4,3.6,3.5
		v6.5h-1.5v-1.3h-0.1c-0.3,0.6-1.2,1.6-2.9,1.6C50.8,280.3,49.4,279.2,49.4,277.2L49.4,277.2z M55.7,276.5v-1.4
		c-0.3,0.3-2,0.5-2.6,0.6c-1.2,0.2-2.2,0.5-2.2,1.7c0,1,0.9,1.6,2.1,1.6C54.7,278.9,55.7,277.7,55.7,276.5L55.7,276.5z M61.5,280H60
		v-9.8h1.5v1.5h0.1c0.5-1,1.4-1.7,2.9-1.7c2,0,3.3,1.2,3.3,3.7v6.2h-1.5v-6.1c0-1.5-0.9-2.5-2.3-2.5s-2.5,1-2.5,2.7V280L61.5,280z
		 M74.8,270.2h1.6l2.1,7.5h0.1l2.1-7.5h1.6l2.1,7.5h0.1l2.1-7.5h1.6l-3,9.8h-1.5l-2.1-7.5h-0.2l-2.1,7.5h-1.5
		C77.8,280,74.8,270.2,74.8,270.2z M89.9,267.5c0-0.6,0.5-1,1.1-1s1.1,0.5,1.1,1s-0.5,1-1.1,1C90.4,268.6,89.9,268.1,89.9,267.5z
		 M90.2,270.2h1.5v9.8h-1.5V270.2z M98.7,271.5h-2.1v5.7c0,1.3,0.6,1.5,1.3,1.5c0.3,0,0.5-0.1,0.7-0.1l0.3,1.4
		c-0.2,0.1-0.6,0.2-1.1,0.2c-1.3,0-2.7-0.8-2.7-2.5v-6.1h-1.5v-1.3h1.5v-2.4h1.5v2.4h2.1L98.7,271.5L98.7,271.5z M102.7,280h-1.5
		v-13.1h1.5v4.8h0.1c0.5-1,1.3-1.7,2.9-1.7c2,0,3.4,1.2,3.4,3.7v6.2h-1.5v-6.1c0-1.6-0.9-2.5-2.3-2.5c-1.5,0-2.6,1-2.6,2.7V280z
		 M116.8,283.5l0.4-1.3c1.1,0.3,1.8,0.1,2.3-1.4l0.3-0.8l-3.6-9.9h1.6l2.7,7.8h0.1l2.7-7.8h1.7l-4.2,11.2c-0.6,1.5-1.5,2.3-2.9,2.3
		C117.4,283.7,116.9,283.6,116.8,283.5L116.8,283.5z M126.1,275.2c0-3.1,1.8-5.1,4.4-5.1c2.7,0,4.5,2,4.5,5.1c0,3-1.8,5.1-4.5,5.1
		C127.9,280.2,126.1,278.2,126.1,275.2z M133.5,275.2c0-2-0.9-3.7-2.9-3.7s-2.9,1.8-2.9,3.7c0,2,0.9,3.7,2.9,3.7
		S133.5,277.1,133.5,275.2z M143.5,270.2h1.5v9.8h-1.5v-1.7h-0.1c-0.5,1-1.4,1.8-2.9,1.8c-1.8,0-3.2-1.2-3.2-3.7v-6.2h1.5v6.1
		c0,1.4,0.9,2.4,2.1,2.4c1.1,0,2.5-0.8,2.5-2.7L143.5,270.2L143.5,270.2z M147.8,270.2h1.5v1.5h0.1c0.4-1,1.4-1.6,2.6-1.6h0.8v1.5
		c-0.1,0-0.5-0.1-0.9-0.1c-1.4,0-2.5,1-2.5,2.3v6.2h-1.5v-9.8H147.8z M24.9,292.2h1.5v1.6h0.2c0.3-0.5,0.9-1.7,2.8-1.7
		c2.5,0,4.2,2,4.2,5.1s-1.7,5.1-4.2,5.1c-1.9,0-2.5-1.2-2.9-1.7h-0.1v5.2h-1.5C24.9,305.8,24.9,292.2,24.9,292.2z M29.2,300.9
		c1.9,0,2.9-1.7,2.9-3.8c0-2.1-0.9-3.7-2.9-3.7c-1.8,0-2.8,1.5-2.8,3.7S27.4,300.9,29.2,300.9z M37.4,302h-1.5v-13.1h1.5v4.8h0.1
		c0.5-1,1.3-1.7,2.9-1.7c2,0,3.4,1.2,3.4,3.7v6.2h-1.5v-6.1c0-1.6-0.9-2.5-2.3-2.5c-1.5,0-2.6,1-2.6,2.7C37.4,296,37.4,302,37.4,302
		z M46,297.2c0-3.1,1.8-5.1,4.5-5.1s4.4,2,4.4,5.1c0,3-1.8,5.1-4.4,5.1S46,300.2,46,297.2z M53.4,297.2c0-2-0.9-3.7-2.9-3.7
		s-2.9,1.8-2.9,3.7c0,2,0.9,3.7,2.9,3.7S53.4,299.1,53.4,297.2z M58.8,302h-1.5v-9.8h1.5v1.5h0.1c0.5-1,1.4-1.7,2.9-1.7
		c2,0,3.3,1.2,3.3,3.7v6.2h-1.5v-6.1c0-1.5-0.9-2.5-2.3-2.5s-2.5,1-2.5,2.7V302L58.8,302z M67.3,297.2c0-3,1.8-5.1,4.4-5.1
		c2,0,4.2,1.3,4.2,4.9v0.6h-7.1c0.1,2.1,1.3,3.2,3.1,3.2c1.2,0,2.1-0.5,2.5-1.5l1.5,0.4c-0.5,1.5-1.9,2.5-3.9,2.5
		C69.1,302.2,67.3,300.2,67.3,297.2z M74.4,296.3c0-1.7-1-2.9-2.7-2.9s-2.8,1.4-2.9,2.9H74.4z M79.6,290.1c0,1-0.6,2.4-1.6,3.2
		l-0.8-0.7c0.5-0.8,1-1.6,1-2.5v-1.2h1.4V290.1z M85.8,294.8c-0.3-0.7-0.8-1.4-2.1-1.4c-1.2,0-2.1,0.6-2.1,1.5
		c0,0.8,0.5,1.1,1.7,1.4l1.5,0.4c1.8,0.4,2.6,1.3,2.6,2.7c0,1.7-1.6,2.9-3.8,2.9c-2,0-3.4-0.9-3.7-2.6l1.4-0.4
		c0.3,1.1,1,1.6,2.3,1.6c1.4,0,2.3-0.7,2.3-1.5c0-0.7-0.5-1.2-1.5-1.4l-1.6-0.4c-1.8-0.4-2.6-1.3-2.6-2.7c0-1.7,1.5-2.8,3.6-2.8
		c1.9,0,3,0.9,3.5,2.3C87.3,294.4,85.8,294.8,85.8,294.8z M94.2,297.2c0-3,1.8-5.1,4.4-5.1c2.1,0,3.6,1.2,3.9,3.1H101
		c-0.2-0.9-1-1.7-2.4-1.7c-1.8,0-2.9,1.5-2.9,3.7c0,2.3,1.2,3.8,2.9,3.8c1.2,0,2.1-0.6,2.4-1.7h1.5c-0.3,1.7-1.7,3.1-3.9,3.1
		C95.9,302.2,94.2,300.1,94.2,297.2L94.2,297.2z M104.3,299.2c0-2.2,2-2.7,3.8-2.9c1.8-0.2,2.5-0.2,2.5-0.9v-0.1c0-1.3-0.7-2-2.1-2
		s-2.2,0.8-2.6,1.5l-1.4-0.5c0.8-1.8,2.5-2.3,3.9-2.3c1.3,0,3.6,0.4,3.6,3.5v6.5h-1.5v-1.3h-0.1c-0.3,0.6-1.2,1.6-2.9,1.6
		S104.3,301.2,104.3,299.2L104.3,299.2z M110.6,298.5v-1.4c-0.3,0.3-2,0.5-2.6,0.6c-1.2,0.2-2.2,0.5-2.2,1.7c0,1,0.9,1.6,2.1,1.6
		C109.6,300.9,110.6,299.7,110.6,298.5L110.6,298.5z M114.9,292.2h1.5v1.5h0.1c0.4-1,1.4-1.7,2.6-1.7c1.3,0,2.1,0.6,2.6,1.7h0.1
		c0.5-1,1.5-1.7,2.9-1.7c1.8,0,3,1.1,3,3.4v6.6h-1.5v-6.6c0-1.5-0.9-2-2-2c-1.4,0-2.2,0.9-2.2,2.2v6.4h-1.5v-6.7
		c0-1.1-0.8-1.9-1.9-1.9c-1.2,0-2.2,1-2.2,2.5v6.1h-1.5V292.2z M130.1,297.2c0-3,1.8-5.1,4.4-5.1c2,0,4.2,1.3,4.2,4.9v0.6h-7.1
		c0.1,2.1,1.3,3.2,3.1,3.2c1.2,0,2.1-0.5,2.5-1.5l1.5,0.4c-0.5,1.5-1.9,2.5-3.9,2.5C131.8,302.2,130.1,300.2,130.1,297.2z
		 M137.2,296.3c0-1.7-1-2.9-2.7-2.9s-2.8,1.4-2.9,2.9H137.2L137.2,296.3z M141,292.2h1.5v1.5h0.1c0.4-1,1.4-1.6,2.6-1.6h0.8v1.5
		c-0.1,0-0.5-0.1-0.9-0.1c-1.4,0-2.5,1-2.5,2.3v6.2H141V292.2z M147.2,299.2c0-2.2,2-2.7,3.8-2.9c1.8-0.2,2.5-0.2,2.5-0.9v-0.1
		c0-1.3-0.7-2-2.1-2c-1.4,0-2.2,0.8-2.6,1.5l-1.4-0.5c0.8-1.8,2.5-2.3,3.9-2.3c1.3,0,3.6,0.4,3.6,3.5v6.5h-1.5v-1.3h-0.1
		c-0.3,0.6-1.2,1.6-2.9,1.6S147.2,301.2,147.2,299.2L147.2,299.2z M153.6,298.5v-1.4c-0.3,0.3-2,0.5-2.6,0.6
		c-1.2,0.2-2.2,0.5-2.2,1.7c0,1,0.9,1.6,2.1,1.6C152.6,300.9,153.6,299.7,153.6,298.5L153.6,298.5z"/>
</g>
</svg>
